{"title":"Beethoven's Christmas Adventure 2011 DvDRiP XviD - VISUALiSE","uid":6798533,"size":1195468340,"categoryP":"video","categoryS":"movies","magnet":"?xt=urn:btih:c74659118a99acca42280665ddbfe75d1b0b4d59&amp;dn=Beethoven%5C%27s+Christmas+Adventure+2011+DvDRiP+XviD+-+VISUALiSE&amp;tr=udp%3A%2F%2Ftracker.openbittorrent.com%3A80&amp;tr=udp%3A%2F%2Fopen.demonii.com%3A1337&amp;tr=udp%3A%2F%2Ftracker.coppersurfer.tk%3A6969&amp;tr=udp%3A%2F%2Fexodus.desync.com%3A6969","seeders":6,"leechers":0,"uploader":"LegendET","files":3,"time":1320565273,"description":"\noooooo     oooo  o8o   .oooooo..o ooooo     ooo       .o.       ooooo         o8o   .oooooo..o oooooooooooo\n`888.     .8'   `&quot;'  d8P'    `Y8 `888'     `8'      .888.      `888'         `&quot;'  d8P'    `Y8 `888'     `8\n`888.   .8'   oooo  Y88bo.       888       8      .8&quot;888.      888         oooo  Y88bo.       888        \n `888. .8'    `888   `&quot;Y8888o.   888       8     .8' `888.     888         `888   `&quot;Y8888o.   888oooo8    \n  `888.8'      888       `&quot;Y88b  888       8    .88ooo8888.    888          888       `&quot;Y88b  888    &quot;    \n   `888'       888  oo     .d8P  `88.    .8'   .8'     `888.   888       o  888  oo     .d8P  888       o\n    `8'       o888o 8&quot;&quot;88888P'     `YbodP'    o88o     o8888o o888ooooood8 o888o 8&quot;&quot;88888P'  o888ooooood8\n\n\n\n\nTitle: Beethoven's Christmas Adventure 2011 DvDRiP XviD - VISUALiSE\nFormat: Xvid\nLanguage: English\nSubtitles: No\nImdb: http://www.imdb.com/title/tt1855134/\n\nPlot:\nA Christmas elf accidentally takes off in Santa's sleigh, \ncrash lands in a small town, and loses the magic toy bag. \nBeethoven must rescue the elf, recover the bag from greedy \ncrooks, and return the sleigh to Santa in time to save \nChristmas\n\nSources:\nVideo:   Retail DVDR - Many Thanks German Pal  \nAudio:   Retail DVDR - Many Thanks German Pal   \n\nRelease Notes:\nBeethoven's Christmas Adventure 2011 DvDRiP XviD - VISUALiSE\nStraight forward rip from the dvdr ran \na few filters etc etc  \n\nenjoy. \n\nInfo:\nVideo\nID                               : 0\nFormat                           : MPEG-4 Visual\nCodec ID                         : XVID\nCodec ID/Hint                    : XviD\nDuration                         : 1h 25mn\nBit rate                         : 90.0 Kbps\nWidth                            : 720 pixels\nHeight                           : 402 pixels\nDisplay aspect ratio             : 16:9\nFrame rate                       : 29.970 fps\nColor space                      : YUV\nChroma subsampling               : 4:2:0\nCompression mode                 : Lossy\nBits/(Pixel*Frame)               : 0.010\nStream size                      : 55.3 MiB (5%)\n\nAudio\nID                               : 1\nFormat                           : MPEG Audio\nCodec ID                         : 55\nCodec ID/Hint                    : MP3\nDuration                         : 1h 25mn\nBit rate                         : 128 Kbps\nChannel(s)                       : 2 channels\nSampling rate                    : 48.0 KHz\nCompression mode                 : Lossy\nStream size                      : 78.6 MiB (7%)\nAlignment                        : Aligned on interleaves\n\nScreens:\n &lt;a href=&quot;\nhttp://i.imgur.com/RqlIb.png&quot; rel=&quot;nofollow&quot; target=&quot;_NEW&quot;&gt;\nhttp://i.imgur.com/RqlIb.png&lt;/a&gt; &lt;a href=&quot;\nhttp://i.imgur.com/BNP92.png&quot; rel=&quot;nofollow&quot; target=&quot;_NEW&quot;&gt;\nhttp://i.imgur.com/BNP92.png&lt;/a&gt; &lt;a href=&quot;\nhttp://i.imgur.com/ZNYnE.png&quot; rel=&quot;nofollow&quot; target=&quot;_NEW&quot;&gt;\nhttp://i.imgur.com/ZNYnE.png&lt;/a&gt; &lt;a href=&quot;\nhttp://i.imgur.com/N7qGl.png&quot; rel=&quot;nofollow&quot; target=&quot;_NEW&quot;&gt;\nhttp://i.imgur.com/N7qGl.png&lt;/a&gt; &lt;a href=&quot;\nhttp://i.imgur.com/ZOo3X.png&quot; rel=&quot;nofollow&quot; target=&quot;_NEW&quot;&gt;\nhttp://i.imgur.com/ZOo3X.png&lt;/a&gt;\n\nGreetz\nThe Villian and\nThe Select Few .... YOU Know Who YOU Are ","torrent":{"xt":"urn:btih:c74659118a99acca42280665ddbfe75d1b0b4d59","amp;dn":"Beethoven%5C%27s+Christmas+Adventure+2011+DvDRiP+XviD+-+VISUALiSE","amp;tr":["udp%3A%2F%2Ftracker.openbittorrent.com%3A80","udp%3A%2F%2Fopen.demonii.com%3A1337","udp%3A%2F%2Ftracker.coppersurfer.tk%3A6969","udp%3A%2F%2Fexodus.desync.com%3A6969"],"infoHash":"c74659118a99acca42280665ddbfe75d1b0b4d59","infoHashBuffer":{"type":"Buffer","data":[199,70,89,17,138,153,172,202,66,40,6,101,221,191,231,93,27,11,77,89]},"announce":[],"urlList":[]}}